<svg version="1.1" id="Layer_1" xmlns="http://www.w3.org/2000/svg" xmlns:xlink="http://www.w3.org/1999/xlink" x="0px" y="0px" width="24" height="24" viewBox="-583 408.9 24 24" style="enable-background:new -583 408.9 24 24;" xml:space="preserve">
<path fill="#AAAAAA" d="M-559.1,420.2c-0.2-0.2-2.4-2.9-2.7-3.4s-0.6-0.4-0.8-0.3c-0.2,0-3,0.5-3.3,0.6s-0.5,0.2-0.3,0.5
	c0.2,0.2,2,2.8,2.4,3.4l-7.3,1.7l-5.8-9.7c-0.2-0.3-0.3-0.5-0.8-0.4c-0.5,0-4.5,0.4-4.8,0.4s-0.6,0.2-0.3,0.8
	c0.3,0.7,4.8,10.5,5,10.8c0.1,0.3,0.5,0.7,1.2,0.6c0.8-0.2,3.5-0.9,5-1.3c0.8,1.4,2.4,4.3,2.7,4.8c0.4,0.6,0.7,0.5,1.3,0.3
	c0.5-0.1,7.5-2.7,7.8-2.8c0.3-0.1,0.5-0.2,0.3-0.5c-0.2-0.2-2-2.7-3-4c0.7-0.2,3-0.8,3.3-0.9C-559,420.5-558.9,420.4-559.1,420.2z
	 M-573.3,422.1c-0.1,0-3.4,0.8-3.5,0.8c-0.2,0.1-0.2,0-0.2-0.1c0-0.1-3.8-8-3.9-8.1c-0.1-0.1-0.1-0.2,0-0.2c0.1,0,3-0.2,3.2-0.2
	c0.1,0,0.1,0,0.2,0.1c0,0,4.2,7.4,4.3,7.5C-573.2,422-573.2,422.1-573.3,422.1z M-561.8,424.9c0.1,0.1,0.1,0.2-0.1,0.2
	c-0.2,0.1-5.5,1.8-5.6,1.9c-0.1,0.1-0.2,0.1-0.3-0.2c-0.2-0.2-1.8-3.2-1.8-3.2l5.7-1.4c0.2-0.1,0.2-0.1,0.2,0.1
	C-563.7,422.5-561.9,424.9-561.8,424.9z M-560.9,419.8c-0.2,0-2.2,0.6-2.2,0.6l-1.7-2.3c-0.1-0.1-0.1-0.2,0-0.2
	c0.2,0,2.1-0.4,2.2-0.4s0.2-0.1,0.2,0.1c0.1,0.2,1.6,2,1.6,2.1C-560.7,419.7-560.8,419.8-560.9,419.8z"/>
</svg>
