<svg width="276" height="284.01" version="1.1" viewBox="0 0 276 284.01">
    <path fill="#AAA" d="m59.242 0.5c-2.3021-0.043015-4.1224 1.5369-6.0558 2.5462-16.598 9.567-33.214 19.105-49.802 28.69-1.1767 0.81198-2.1245 1.9699-2.5547 3.3457-0.58712 1.7667-0.23201 3.6647-0.33008 5.4902 0.005774 58.809-0.011548 117.62 0.008661 176.43 0.057982 2.4435 1.6909 4.6427 3.8761 5.6563 34.799 20.029 69.59 40.074 104.39 60.094 1.7539 0.94237 3.9333 1.0282 5.7226 0.1316 4.0246-2.2176 7.976-4.5778 11.972-6.8502 31.247-17.998 62.508-35.971 93.745-53.985 1.976-1.2789 3.0213-3.6837 2.832-6.0027v-55.503c16.537-9.5314 33.09-19.036 49.617-28.584 1.9776-1.2778 3.0219-3.6835 2.832-6.0027-0.01-19.812 0.0193-39.626-0.0145-59.436-0.16788-1.941-1.1103-3.8483-2.7472-4.9538-2.7364-1.6963-5.5798-3.229-8.3569-4.863-14.981-8.6164-29.946-17.26-44.936-25.86-2.0886-1.063-4.6838-0.77002-6.589 0.55045-17.354 9.9999-34.723 19.975-52.067 29.991-1.2786 0.83957-2.2633 2.1055-2.6953 3.5801-0.48936 1.789-0.17318 3.6722-0.26367 5.5027v52.503c-13.237 7.6224-26.474 15.245-39.711 22.867-7e-3 -36.394 0.013-72.788-0.01-109.18-0.13781-1.9434-1.1977-3.7899-2.8203-4.8711-7.4856-4.376-15.029-8.6631-22.536-13.005-10.234-5.8782-20.443-11.801-30.692-17.651-0.87436-0.4219-1.8482-0.63499-2.8184-0.625zm39.701 36.582c-13.228 7.6178-26.456 15.236-39.684 22.854-13.228-7.6178-26.456-15.236-39.684-22.854 13.228-7.6178 26.456-15.236 39.684-22.854 13.228 7.6178 26.456 15.236 39.684 22.854zm157.36 29.682c-13.229 7.6172-26.457 15.234-39.686 22.852-13.228-7.6172-26.456-15.234-39.684-22.852 13.228-7.6178 26.456-15.236 39.684-22.854 13.229 7.6178 26.457 15.236 39.686 22.854zm-227.77-9.8281c8.1198 4.6745 16.24 9.349 24.359 14.023 0.0071 38.771-0.01421 77.543 0.01065 116.31 0.0609 0.90807 0.25438 1.7723 0.66708 2.5881 0.67462 1.4213 1.961 2.4561 3.3466 3.1577 16.151 9.1408 32.303 18.282 48.454 27.422v45.664c-30.733-17.686-61.466-35.372-92.199-53.059v-164.95c5.1204 2.9479 10.241 5.8958 15.361 8.8438zm76.818 96.223c-13.239 7.6264-26.477 15.254-39.719 22.875v-105.07c13.24-7.6225 26.479-15.245 39.719-22.867v105.07zm80.543-66.533c8.1191 4.6745 16.238 9.349 24.357 14.023v45.186c-13.24-7.6227-26.48-15.245-39.721-22.867v-45.186c5.1211 2.9479 10.242 5.8958 15.363 8.8438zm76.818 36.336c-13.24 7.6244-26.48 15.249-39.721 22.873v-45.186c13.24-7.6228 26.48-15.246 39.721-22.867v45.18zm-58.902 33.863c-30.702 17.529-61.409 35.053-92.113 52.578-13.197-7.4681-26.395-14.936-39.592-22.404 30.685-17.667 61.371-35.333 92.057-52.998 13.216 7.6081 26.432 15.216 39.648 22.824zm6.4414 56.223c-30.723 17.689-61.447 35.378-92.17 53.066v-45.68c30.723-17.539 61.445-35.08 92.17-52.617v45.23z"/>
</svg>
